<svg width="1280" height="855" viewBox="0 0 1280 855" fill="none" xmlns="http://www.w3.org/2000/svg">
<path d="M1279.51 521.818V526.558C1279.33 526.785 1279.24 527.191 1279.24 527.778C1279.24 528.165 1279.07 528.268 1278.73 528.088C1276.56 526.915 1275.08 526.045 1274.3 525.478C1263.37 517.511 1255.08 511.711 1249.44 508.078C1212.97 484.551 1173.42 468.975 1130.79 461.348C1115.06 458.528 1096.83 461.968 1081.96 467.088C1081.35 467.295 1081.35 467.515 1081.94 467.748C1110.86 479.175 1136.69 495.531 1159.44 516.818C1163.34 520.465 1170.42 527.658 1180.67 538.398C1180.78 538.511 1180.86 538.646 1180.91 538.794C1180.96 538.943 1180.98 539.1 1180.97 539.258L1180.49 544.498C1180.43 545.178 1180.15 545.288 1179.65 544.828C1176.88 542.255 1172.81 538.161 1167.45 532.548C1140.82 504.641 1108.84 484.215 1071.49 471.268C1071.19 471.168 1070.9 471.185 1070.62 471.318C1058.93 476.758 1047.83 483.718 1036.47 487.998C1036.16 488.111 1036.12 488.281 1036.37 488.508C1048.77 499.861 1060.96 512.795 1072.94 527.308C1085.59 542.621 1093.51 552.461 1096.7 556.828C1098.23 558.928 1098.27 561.525 1096.84 564.618C1096.74 564.831 1096.62 564.845 1096.47 564.658C1076 538.588 1055.77 511.598 1029.4 490.528C1029.28 490.431 1029.14 490.363 1028.99 490.329C1028.85 490.294 1028.69 490.294 1028.54 490.328C1013.77 493.801 998.84 494.805 983.74 493.338C983.467 493.311 983.207 493.361 982.96 493.488L974.44 497.968C974.384 497.998 974.336 498.04 974.298 498.091C974.26 498.142 974.234 498.2 974.222 498.262C974.21 498.324 974.211 498.388 974.226 498.45C974.241 498.511 974.27 498.569 974.31 498.618C994.52 523.228 1010.59 551.178 1025.88 578.958C1027.58 582.048 1027.67 584.338 1026.76 587.538C1026.64 587.951 1026.47 587.971 1026.25 587.598C1008.6 557.578 992.58 526.678 969.18 500.498C969.076 500.382 968.941 500.3 968.792 500.261C968.642 500.222 968.485 500.228 968.34 500.278C955.62 504.838 945.27 505.008 931.94 502.548C931.79 502.52 931.635 502.525 931.489 502.563C931.342 502.601 931.206 502.671 931.09 502.768L922.44 509.788C922.351 509.86 922.291 509.962 922.271 510.075C922.251 510.189 922.272 510.307 922.33 510.408C930.69 524.515 938.187 539.035 944.82 553.968C955.76 578.588 963.39 597.035 967.71 609.308C968.117 610.455 967.837 612.201 966.87 614.548C966.75 614.841 966.63 614.841 966.51 614.548C952.3 580.248 938.78 544.118 918.6 512.768C918.38 512.428 918.103 512.368 917.77 512.588C908.28 518.778 899.49 517.188 887.57 514.438C887.407 514.399 887.236 514.405 887.076 514.456C886.916 514.507 886.772 514.601 886.66 514.728L878.72 523.598C878.473 523.871 878.42 524.175 878.56 524.508C894.36 562.208 905.45 601.078 916.98 640.198C917.7 642.628 917.22 644.378 916.65 646.658C916.397 647.671 916.133 647.675 915.86 646.668C904.78 606.518 892.67 565.358 875.63 527.278C875.59 527.184 875.528 527.101 875.449 527.036C875.37 526.971 875.277 526.926 875.177 526.905C875.077 526.883 874.973 526.886 874.875 526.912C874.776 526.939 874.685 526.989 874.61 527.058C867.04 534.008 858.4 531.468 849.71 528.818C849.343 528.705 849.053 528.811 848.84 529.138L841.58 540.448C841.413 540.708 841.377 540.988 841.47 541.288C855.11 584.708 864.5 629.238 874.05 677.308C874.54 679.758 875.31 681.628 873.81 683.988C873.53 684.428 873.333 684.391 873.22 683.878C863.1 636.818 853.49 590.118 839.33 544.058C839.297 543.955 839.237 543.863 839.156 543.793C839.075 543.722 838.976 543.675 838.87 543.656C838.763 543.638 838.654 543.648 838.554 543.687C838.453 543.727 838.366 543.792 838.3 543.878C832.59 551.558 824.4 548.928 817.27 545.678C816.997 545.551 816.793 545.628 816.66 545.908L809.07 562.058C808.943 562.331 808.923 562.611 809.01 562.898C823.85 609.945 832.983 658.071 836.41 707.278C836.7 711.438 839.85 724.978 837.87 728.258C837.827 728.325 837.763 728.378 837.689 728.41C837.615 728.441 837.533 728.449 837.455 728.432C837.378 728.416 837.307 728.376 837.255 728.318C837.202 728.26 837.169 728.186 837.16 728.108C836.4 722.348 835.11 716.558 834.68 710.918C830.933 661.598 821.617 613.251 806.73 565.878C806.706 565.801 806.66 565.733 806.597 565.681C806.535 565.63 806.459 565.597 806.379 565.588C806.299 565.578 806.218 565.592 806.145 565.628C806.072 565.663 806.012 565.719 805.97 565.788C801.97 572.408 795.11 569.048 790.26 565.988C789.96 565.795 789.75 565.865 789.63 566.198L782.97 585.098C782.85 585.438 782.83 585.781 782.91 586.128C795.703 641.675 803.497 697.915 806.29 754.848C806.61 761.428 807.39 767.878 808.03 774.398C808.25 776.618 808.65 778.218 807.47 780.288C807.409 780.392 807.317 780.474 807.207 780.523C807.097 780.572 806.974 780.584 806.856 780.558C806.739 780.533 806.632 780.471 806.552 780.381C806.472 780.291 806.422 780.178 806.41 780.058C805.68 772.118 804.75 764.228 804.29 756.218C801.117 700.038 793.35 644.615 780.99 589.948C780.967 589.846 780.913 589.753 780.836 589.681C780.759 589.61 780.662 589.564 780.558 589.549C780.454 589.534 780.348 589.55 780.254 589.596C780.16 589.643 780.082 589.716 780.03 589.808C776.4 596.418 771.31 592.928 767.18 589.638C766.84 589.365 766.62 589.441 766.52 589.868C765.07 596.128 760.21 619.778 754.71 621.968C754.567 622.025 754.415 622.053 754.263 622.052C754.11 622.05 753.959 622.018 753.82 621.958C751.607 621.031 749.74 619.635 748.22 617.768C748.133 617.662 748.016 617.584 747.885 617.543C747.754 617.501 747.614 617.499 747.481 617.536C747.349 617.573 747.23 617.648 747.139 617.751C747.049 617.855 746.99 617.982 746.97 618.118C745.543 628.325 743.48 638.431 740.78 648.438C740.16 650.738 739.25 652.888 738.05 654.888C737.947 655.061 737.805 655.207 737.635 655.315C737.466 655.423 737.273 655.49 737.073 655.511C736.873 655.531 736.67 655.504 736.482 655.433C736.294 655.361 736.126 655.246 735.99 655.098C735.79 654.878 735.593 654.485 735.4 653.918C713.187 589.945 703.477 524.078 706.27 456.318C706.272 456.249 706.253 456.18 706.215 456.122C706.177 456.064 706.122 456.019 706.058 455.993C705.994 455.967 705.923 455.961 705.856 455.976C705.788 455.991 705.727 456.027 705.68 456.078C698.513 464.338 690.443 471.635 681.47 477.968C679.37 479.458 677.32 481.928 675.93 484.068C662.74 504.348 657.97 529.258 655.43 552.688C651.7 587.148 649.51 621.388 643.89 655.668C642.92 661.538 640.21 677.098 634.97 680.438C634.661 680.635 634.309 680.754 633.944 680.785C633.578 680.815 633.211 680.756 632.874 680.612C632.537 680.468 632.24 680.244 632.009 679.959C631.779 679.674 631.621 679.337 631.55 678.978C626.337 652.865 621.857 626.538 618.11 599.998C617.603 596.431 616.77 592.658 615.61 588.678C613.243 580.558 611.31 572.341 609.81 564.028C607.57 551.628 603.12 539.628 598.65 528.008C596.83 523.258 594.19 519.098 591.82 514.568C587.03 505.408 579.33 498.298 572.07 491.228C570.317 489.515 568.273 487.918 565.94 486.438C551.13 477.008 539.22 463.188 530.07 448.338C530.024 448.268 529.958 448.213 529.881 448.182C529.803 448.15 529.717 448.143 529.636 448.162C529.554 448.18 529.48 448.223 529.424 448.285C529.367 448.347 529.331 448.425 529.32 448.508C515.387 584.615 496.433 720.015 472.46 854.708C472.449 854.765 472.421 854.818 472.38 854.86C472.34 854.902 472.288 854.93 472.231 854.942C472.175 854.954 472.117 854.949 472.065 854.927C472.013 854.904 471.97 854.866 471.94 854.818C470.867 853.145 470.513 851.278 470.88 849.218C494.847 715.285 513.693 580.631 527.42 445.258C527.46 444.905 527.393 444.571 527.22 444.258L513.46 419.468C513.434 419.416 513.392 419.373 513.34 419.347C513.288 419.321 513.229 419.312 513.171 419.322C513.114 419.332 513.061 419.361 513.022 419.403C512.982 419.446 512.957 419.5 512.95 419.558C495.79 544.518 472.45 668.298 441.96 791.668C441.807 792.301 441.617 792.311 441.39 791.698C440.58 789.478 440.26 787.228 440.87 784.778C471.043 662.938 494.513 539.815 511.28 415.408C511.325 415.07 511.262 414.73 511.1 414.438L496.29 386.798C496.253 386.73 496.196 386.676 496.126 386.642C496.056 386.609 495.978 386.598 495.902 386.611C495.826 386.624 495.756 386.661 495.702 386.716C495.648 386.771 495.612 386.842 495.6 386.918C494.587 393.338 493.493 399.801 492.32 406.308C471.96 519.135 443.077 629.721 405.67 738.068C405.457 738.701 405.267 738.695 405.1 738.048C404.63 736.148 404.04 734.018 404.7 732.068C443.22 618.348 474.31 502.298 493.96 383.768C494.02 383.415 493.96 383.081 493.78 382.768C488.813 374.088 483.253 365.805 477.1 357.918C477.05 357.852 476.982 357.802 476.904 357.774C476.825 357.747 476.741 357.743 476.659 357.763C476.578 357.783 476.504 357.826 476.445 357.887C476.387 357.948 476.347 358.025 476.33 358.108C473.27 375.108 469.99 391.988 465.76 408.798C441.127 506.871 406.873 601.481 363 692.628C362.74 693.168 362.543 693.148 362.41 692.568C361.81 689.948 361.37 687.628 362.57 685.028C367.197 675.008 371.797 664.978 376.37 654.938C412.337 575.951 441.143 494.451 462.79 410.438C467.19 393.368 470.1 377.568 473.81 358.758C474.077 357.398 474.257 356.225 474.35 355.238C474.383 354.885 474.283 354.575 474.05 354.308C468.443 347.875 462.307 341.998 455.64 336.678C455.56 336.615 455.466 336.573 455.365 336.555C455.265 336.538 455.162 336.546 455.065 336.579C454.969 336.612 454.882 336.668 454.813 336.743C454.744 336.818 454.695 336.909 454.67 337.008C446.67 369.588 438.34 401.738 426.47 433.118C397.003 511.065 358.98 584.575 312.4 653.648C312.14 654.035 311.963 653.998 311.87 653.538C311.34 650.908 310.94 648.558 312.54 646.128C362.99 569.818 403.86 489.158 434 402.748C441.59 380.968 446.59 357.698 452.33 335.308C452.394 335.054 452.378 334.786 452.283 334.541C452.188 334.295 452.019 334.085 451.8 333.938C445.453 329.758 438.777 326.215 431.77 323.308C431.457 323.181 431.243 323.275 431.13 323.588C421.43 349.548 412.49 375.758 402.7 401.688C401.867 403.895 399.843 408.235 396.63 414.708C358.93 490.561 310.987 559.231 252.8 620.718C252.447 621.091 252.223 621.025 252.13 620.518C251.56 617.448 251.47 614.968 253.77 612.458C259.503 606.205 265.187 599.905 270.82 593.558C321.713 536.211 363.973 473.108 397.6 404.248C400.86 397.568 403.81 389.738 406.32 382.528C413.32 362.421 420.54 342.395 427.98 322.448C428.093 322.141 427.993 321.938 427.68 321.838C420.813 319.691 413.823 318.061 406.71 316.948C406.452 316.906 406.186 316.945 405.949 317.059C405.711 317.174 405.513 317.358 405.38 317.588C392.04 340.855 379.67 364.731 368.27 389.218C362.24 402.188 353.88 415.698 344.78 428.208C298.973 491.175 244.857 546.041 182.43 592.808C182.05 593.095 181.85 593.001 181.83 592.528L181.57 586.598C181.564 586.434 181.597 586.272 181.666 586.124C181.736 585.976 181.84 585.847 181.97 585.748C247.577 536.561 303.987 478.455 351.2 411.428C356.75 403.538 363.12 391.328 368.32 380.468C378.64 358.888 389.62 337.625 401.26 316.678C401.28 316.641 401.291 316.6 401.291 316.558C401.291 316.516 401.281 316.475 401.261 316.438C401.241 316.401 401.212 316.37 401.177 316.347C401.142 316.325 401.102 316.311 401.06 316.308C394.68 315.801 388.247 315.625 381.76 315.778C381.407 315.785 380.897 316.101 380.23 316.728C353.68 341.488 334.97 373.228 313.95 402.438C307.45 411.468 300.26 419.688 291.77 427.998C234.33 484.251 170.037 531.195 98.89 568.828C98.8245 568.862 98.7513 568.879 98.6773 568.877C98.6034 568.875 98.5313 568.854 98.4679 568.815C98.4046 568.777 98.3521 568.723 98.3157 568.659C98.2793 568.595 98.2601 568.522 98.26 568.448L98.27 562.618C98.2698 562.427 98.3218 562.24 98.4205 562.077C98.5191 561.913 98.6607 561.778 98.83 561.688C167.23 525.455 229.96 479.898 287.02 425.018C299.613 412.905 310.13 400.588 318.57 388.068C335.03 363.628 351.87 338.858 371.79 317.138C371.836 317.086 371.864 317.02 371.871 316.951C371.877 316.881 371.862 316.812 371.826 316.752C371.791 316.692 371.737 316.645 371.673 316.617C371.609 316.589 371.538 316.583 371.47 316.598C345.8 322.598 324.26 338.278 305.08 356.078C286.66 373.178 268.33 392.918 254.28 407.278C243.02 418.788 231.81 426.578 216.71 436.828C149.177 482.695 77.1333 519.955 0.58 548.608C0.193333 548.748 0 548.611 0 548.198L0.00999999 541.968C0.0166667 541.575 0.203333 541.308 0.57 541.168C80.92 511.058 157.33 470.858 227.66 421.778C239.447 413.551 249.83 404.648 258.81 395.068C278.75 373.808 297.11 354.478 318.72 336.698C335.94 322.538 357.95 309.358 380.43 308.368C380.758 308.355 381.071 308.223 381.31 307.998C392.16 297.848 405.01 289.218 419.99 288.118C420.15 288.108 420.306 288.063 420.447 287.985C420.589 287.907 420.713 287.799 420.81 287.668C428.79 276.958 439.83 265.988 453.6 263.808C453.759 263.783 453.911 263.722 454.044 263.631C454.177 263.539 454.289 263.418 454.37 263.278C460.06 253.548 469.64 237.608 481.84 235.668C482.138 235.623 482.419 235.498 482.654 235.306C482.889 235.115 483.071 234.864 483.18 234.578C486.81 225.188 495.37 205.558 505.93 202.908C506.085 202.869 506.226 202.789 506.341 202.677C506.455 202.564 506.537 202.423 506.58 202.268C509.72 191.448 513.45 181.078 519.14 170.678C521.313 166.705 524.4 164.161 528.4 163.048C528.72 162.961 528.927 162.761 529.02 162.448C533.347 147.615 538.17 132.938 543.49 118.418C543.542 118.281 543.64 118.162 543.77 118.078L545.26 117.138C545.587 116.931 545.79 116.641 545.87 116.268C549.457 99.2678 553.503 82.3812 558.01 65.6078C558.43 64.0378 559.73 63.2179 559.96 61.7379C563.147 41.3179 566.797 20.9812 570.91 0.727849C570.936 0.582683 571.005 0.448346 571.108 0.341631C571.212 0.234916 571.344 0.160557 571.49 0.127849C577.15 -1.16215 580.27 7.63785 580.91 11.7678C599.05 129.768 608.2 250.298 606.48 370.238C605.9 410.798 607 451.368 609.57 492.028C609.583 492.258 609.683 492.474 609.851 492.632C610.018 492.79 610.24 492.878 610.47 492.878C626.963 492.811 642.83 489.678 658.07 483.478C658.235 483.41 658.376 483.294 658.474 483.146C658.572 482.998 658.623 482.824 658.62 482.648C657.713 406.721 665.25 331.588 681.23 257.248C681.91 254.058 685.47 252.978 687.44 255.818C691.44 261.568 692.44 271.988 693.65 278.898C693.71 279.238 693.883 279.505 694.17 279.698C700.28 283.888 701.12 291.708 703.48 300.728C703.52 300.886 703.597 301.033 703.705 301.156C703.812 301.279 703.948 301.376 704.1 301.438C711.22 304.318 712.8 312.818 715.38 319.448C715.436 319.594 715.525 319.725 715.64 319.831C715.754 319.936 715.891 320.014 716.04 320.058C723.53 322.218 725.51 328.378 728.78 334.718C728.953 335.058 729.223 335.281 729.59 335.388C737.31 337.661 743.417 342.145 747.91 348.838C748.09 349.108 748.365 349.3 748.68 349.378C756.013 351.291 762.39 354.895 767.81 360.188C768.051 360.429 768.357 360.593 768.69 360.658C776.37 362.185 783.513 364.991 790.12 369.078C791.387 369.858 792.74 370.351 794.18 370.558C802.56 371.758 810.573 374.135 818.22 377.688C819.753 378.395 821.347 378.808 823 378.928C850.933 380.895 873.38 392.528 890.34 413.828C896.47 421.528 900.63 431.208 906.5 439.548C917.74 455.515 932.247 467.738 950.02 476.218C950.32 476.365 950.61 476.341 950.89 476.148C961.3 468.618 978.21 461.168 991.24 463.718C996.567 464.758 1001.69 466.475 1006.61 468.868C1006.91 469.008 1007.21 469.001 1007.5 468.848C1019.75 462.248 1032.84 458.495 1046.77 457.588C1052.92 457.178 1063.76 461.418 1069.66 463.378C1070.49 463.655 1071.39 463.615 1072.2 463.268C1089.4 455.848 1112.25 450.458 1131.01 453.818C1187.39 463.918 1234.59 487.518 1279.51 521.818ZM570.94 8.62785L562.16 62.4278C562.107 62.7612 562.223 63.0212 562.51 63.2078C566.09 65.5278 568.71 68.6812 570.37 72.6678C576.99 88.5378 579.89 106.548 582.2 123.508C585.693 149.195 588.4 174.965 590.32 200.818C594.107 251.925 597.277 303.075 599.83 354.268C600.13 360.355 600.217 367.015 600.09 374.248C599.377 413.561 600.98 452.785 604.9 491.918C604.94 492.305 605.153 492.498 605.54 492.498H606.26C606.338 492.498 606.416 492.482 606.488 492.451C606.56 492.42 606.624 492.374 606.678 492.317C606.731 492.26 606.772 492.192 606.799 492.118C606.825 492.044 606.836 491.966 606.83 491.888C604.13 450.208 603.2 408.491 604.04 366.738C604.213 358.231 604.3 351.568 604.3 346.748C604.287 236.875 596.193 127.591 580.02 18.8978C579.57 15.9178 576.3 4.64785 571.51 7.74785C571.19 7.95452 571 8.24785 570.94 8.62785ZM599.26 448.198C599.33 445.638 598.65 442.238 598.55 440.338C597.29 418.448 597.54 396.478 597.96 374.558C598.093 367.605 597.993 360.941 597.66 354.568C594.46 293.708 590.83 223.618 584.77 160.498C582.783 139.831 579.64 119.345 575.34 99.0378C573.35 89.6278 570.76 78.0978 563.39 71.3078C563.182 71.1184 562.925 70.9893 562.649 70.9346C562.372 70.8799 562.087 70.9017 561.823 70.9976C561.559 71.0935 561.326 71.2599 561.151 71.4786C560.976 71.6973 560.865 71.9599 560.83 72.2378L554.61 120.198C554.557 120.605 554.647 120.975 554.88 121.308C560.067 128.888 563.85 137.138 566.23 146.058C577.08 186.758 581.32 230.178 584.86 272.068C589.813 330.675 594.28 389.388 598.26 448.208C598.261 448.34 598.315 448.467 598.41 448.56C598.505 448.653 598.632 448.704 598.765 448.703C598.898 448.702 599.024 448.648 599.117 448.553C599.21 448.458 599.261 448.33 599.26 448.198ZM557.05 77.6479C554.003 90.6479 551.117 103.688 548.39 116.768C548.317 117.108 548.443 117.348 548.77 117.488L551.23 118.538C551.321 118.578 551.42 118.596 551.518 118.59C551.617 118.585 551.714 118.556 551.799 118.506C551.885 118.457 551.958 118.387 552.012 118.304C552.066 118.221 552.099 118.126 552.11 118.028C553.623 104.328 555.467 90.6712 557.64 77.0578C557.642 77.0429 557.64 77.0277 557.634 77.014C557.628 77.0002 557.618 76.9885 557.605 76.9801C557.593 76.9717 557.578 76.9671 557.563 76.9667C557.548 76.9663 557.533 76.9702 557.52 76.9779C557.28 77.1245 557.123 77.3479 557.05 77.6479ZM546.56 125.418L539.24 165.748C539.173 166.115 539.267 166.438 539.52 166.718L545.83 173.638C546.07 173.905 546.207 173.858 546.24 173.498L550.87 126.318C550.91 125.938 550.743 125.705 550.37 125.618L547.37 124.888C546.91 124.775 546.64 124.951 546.56 125.418ZM542.52 129.578C538.84 140.585 535.317 151.645 531.95 162.758C531.906 162.906 531.923 163.066 531.996 163.203C532.069 163.339 532.192 163.442 532.34 163.488L536.01 164.608C536.337 164.708 536.53 164.591 536.59 164.258L542.91 129.678C543.25 127.825 543.12 127.791 542.52 129.578ZM599.24 491.708C599.94 491.875 600.257 491.601 600.19 490.888C594.81 431.678 590.77 372.358 586.3 313.068C583.43 275.068 579.94 237.178 574.6 199.438C572.653 185.658 570.023 172.015 566.71 158.508C564.25 148.518 560.89 137.368 554.53 129.088C554.468 129.01 554.385 128.952 554.29 128.921C554.195 128.891 554.093 128.89 553.997 128.918C553.902 128.946 553.817 129.001 553.753 129.078C553.689 129.155 553.65 129.249 553.64 129.348L548.83 178.018C548.797 178.371 548.857 178.711 549.01 179.038C559.86 202.098 564.84 227.518 568.85 252.528C581.44 331.088 586.55 410.758 596.46 489.698C596.573 490.618 597.5 491.288 599.24 491.708ZM529.44 171.228L520.96 204.428C520.893 204.708 520.97 204.938 521.19 205.118L529.48 212.078C529.7 212.258 529.83 212.208 529.87 211.928L535.18 172.818C535.293 171.991 534.937 171.505 534.11 171.358L530.28 170.688C530.098 170.654 529.909 170.691 529.753 170.792C529.597 170.892 529.485 171.048 529.44 171.228ZM525.93 171.328C518.77 173.898 511.81 195.008 509.76 201.898C509.7 202.078 509.763 202.185 509.95 202.218L517.86 203.738C518.107 203.785 518.26 203.688 518.32 203.448L526.27 171.638C526.35 171.318 526.237 171.215 525.93 171.328ZM537.94 174.088L532.2 215.198C532.162 215.462 532.226 215.73 532.38 215.948C536.22 221.388 539.417 227.181 541.97 233.328C541.985 233.373 542.015 233.411 542.055 233.436C542.096 233.461 542.144 233.47 542.19 233.463C542.237 233.456 542.28 233.432 542.311 233.397C542.342 233.361 542.359 233.315 542.36 233.268L545.49 181.888C545.503 181.7 545.45 181.509 545.34 181.348C543.427 178.541 541.173 176.038 538.58 173.838C538.526 173.792 538.461 173.762 538.392 173.75C538.322 173.739 538.251 173.746 538.185 173.772C538.12 173.797 538.062 173.84 538.019 173.896C537.976 173.952 537.948 174.018 537.94 174.088ZM590.86 489.678L593.7 490.568C593.79 490.598 593.886 490.604 593.98 490.585C594.073 490.567 594.16 490.525 594.233 490.463C594.306 490.401 594.362 490.321 594.397 490.231C594.431 490.141 594.443 490.044 594.43 489.948C583.08 406.328 578.92 321.768 563.99 238.658C560.797 220.878 555.767 203.725 548.9 187.198C548.866 187.114 548.804 187.043 548.724 186.999C548.645 186.955 548.553 186.939 548.463 186.954C548.373 186.969 548.291 187.015 548.231 187.082C548.17 187.15 548.135 187.237 548.13 187.328L544.73 238.568C544.69 239.142 544.765 239.72 544.95 240.268C551.477 259.595 556.57 279.308 560.23 299.408C571.7 362.448 577.32 426.348 590.34 489.108C590.367 489.241 590.43 489.364 590.521 489.465C590.613 489.565 590.73 489.639 590.86 489.678ZM507.11 210.278L500.02 237.688C499.975 237.851 499.991 238.025 500.064 238.178C500.138 238.331 500.264 238.451 500.42 238.518C503.867 240.018 507.007 242.008 509.84 244.488C510.14 244.748 510.327 244.685 510.4 244.298L516.55 211.248C516.623 210.861 516.463 210.641 516.07 210.588L508.19 209.548C507.952 209.518 507.712 209.576 507.513 209.71C507.314 209.844 507.171 210.046 507.11 210.278ZM503.16 210.948C495.63 215.778 489.92 226.738 486.74 234.888C486.587 235.268 486.713 235.461 487.12 235.468C490.487 235.548 493.773 236.105 496.98 237.138C497.32 237.251 497.533 237.135 497.62 236.788L503.86 211.448C503.884 211.358 503.88 211.262 503.848 211.174C503.816 211.087 503.759 211.011 503.683 210.956C503.607 210.902 503.516 210.872 503.423 210.871C503.329 210.869 503.238 210.896 503.16 210.948ZM519.22 212.498L512.68 246.418C512.652 246.554 512.658 246.696 512.696 246.83C512.734 246.964 512.804 247.087 512.9 247.188C517.48 252.001 521.43 257.285 524.75 263.038C524.77 263.074 524.802 263.103 524.839 263.12C524.877 263.138 524.919 263.143 524.959 263.135C524.999 263.127 525.034 263.107 525.06 263.076C525.085 263.046 525.099 263.008 525.1 262.968L528.84 220.178C528.873 219.818 528.767 219.505 528.52 219.238C525.953 216.511 523.067 214.171 519.86 212.218C519.8 212.182 519.733 212.161 519.664 212.157C519.595 212.152 519.526 212.165 519.463 212.192C519.4 212.22 519.345 212.262 519.303 212.315C519.26 212.368 519.232 212.431 519.22 212.498ZM531.18 224.768L527.24 266.998C527.214 267.292 527.269 267.586 527.4 267.848C532.333 277.648 536.423 287.791 539.67 298.278C539.688 298.345 539.73 298.404 539.788 298.443C539.846 298.482 539.916 298.499 539.985 298.49C540.055 298.482 540.119 298.449 540.165 298.397C540.212 298.345 540.239 298.278 540.24 298.208C541.16 280.535 541.73 262.908 541.95 245.328C542.03 238.878 536.89 232.198 534.16 226.598C533.653 225.551 532.897 224.805 531.89 224.358C531.463 224.165 531.227 224.301 531.18 224.768ZM474.92 266.168C479.98 267.921 484.727 270.295 489.16 273.288C489.54 273.541 489.777 273.445 489.87 272.998L495.77 244.988C495.857 244.588 495.7 244.335 495.3 244.228C491.44 243.221 487.517 242.818 483.53 243.018C483.17 243.038 482.927 243.218 482.8 243.558L474.75 265.818C474.738 265.851 474.733 265.887 474.734 265.922C474.736 265.958 474.746 265.993 474.761 266.025C474.777 266.058 474.799 266.087 474.826 266.112C474.854 266.136 474.885 266.155 474.92 266.168ZM459.48 263.478L471.54 265.118C471.651 265.131 471.764 265.107 471.859 265.049C471.953 264.991 472.024 264.902 472.06 264.798L479.04 244.528C479.07 244.439 479.074 244.343 479.049 244.253C479.025 244.162 478.974 244.081 478.903 244.02C478.832 243.959 478.744 243.92 478.651 243.909C478.558 243.898 478.463 243.915 478.38 243.958C469.91 248.408 464.44 255.378 459.35 263.198C459.333 263.224 459.322 263.253 459.32 263.284C459.317 263.315 459.323 263.346 459.336 263.375C459.349 263.403 459.369 263.427 459.394 263.445C459.42 263.463 459.449 263.475 459.48 263.478ZM492.79 276.248C496.96 278.948 501.21 283.998 504.33 287.878C504.363 287.916 504.406 287.944 504.453 287.959C504.501 287.974 504.552 287.975 504.6 287.962C504.647 287.95 504.69 287.924 504.722 287.887C504.754 287.851 504.774 287.806 504.78 287.758L509.2 252.088C509.212 251.987 509.198 251.884 509.16 251.789C509.122 251.695 509.06 251.612 508.98 251.548C505.893 249.048 502.53 246.995 498.89 245.388C498.583 245.255 498.393 245.348 498.32 245.668C495.293 258.881 493.207 268.491 492.06 274.498C491.913 275.251 492.157 275.835 492.79 276.248ZM584.37 487.738L587.16 488.838C587.687 489.045 587.897 488.868 587.79 488.308C577.37 435.658 569.88 374.188 563.52 332.248C559.43 305.208 553.82 276.498 544.82 249.628C544.801 249.551 544.754 249.485 544.688 249.441C544.622 249.397 544.543 249.378 544.465 249.39C544.386 249.401 544.315 249.441 544.264 249.501C544.214 249.562 544.187 249.639 544.19 249.718C543.683 266.958 542.933 284.185 541.94 301.398C541.82 303.458 542.037 305.488 542.59 307.488C559.03 366.848 565.42 428.408 583.87 487.198C583.908 487.32 583.972 487.431 584.059 487.525C584.145 487.618 584.252 487.691 584.37 487.738ZM511.38 254.538L506.84 290.438C506.808 290.722 506.879 291.009 507.04 291.248C512.633 299.461 517.447 308.121 521.48 317.228C521.516 317.302 521.576 317.363 521.65 317.401C521.724 317.438 521.808 317.45 521.889 317.436C521.971 317.421 522.045 317.38 522.101 317.319C522.157 317.258 522.192 317.18 522.2 317.098C523.267 302.151 524.07 287.368 524.61 272.748C524.76 268.498 515.02 257.328 512.02 254.318C511.97 254.269 511.907 254.236 511.838 254.22C511.77 254.205 511.699 254.209 511.633 254.232C511.566 254.255 511.508 254.295 511.463 254.349C511.419 254.403 511.39 254.469 511.38 254.538ZM683.56 261.808C683.077 262.438 682.64 263.033 682.324 263.489C682.009 263.945 681.834 264.235 681.83 264.308C668.657 329.408 661.613 396.055 660.7 464.248C660.66 467.548 660.227 473.485 659.4 482.058C659.393 482.125 659.404 482.193 659.434 482.253C659.464 482.313 659.511 482.364 659.569 482.399C659.628 482.435 659.695 482.453 659.764 482.453C659.833 482.453 659.901 482.434 659.96 482.398C660.247 482.225 660.407 481.921 660.44 481.488C661.38 470.108 662.21 459.598 662.69 447.388C664.87 392.135 673.067 337.775 687.28 284.308C687.707 282.715 689.06 281.198 691.34 279.758C691.472 279.676 691.577 279.555 691.639 279.41C691.702 279.266 691.719 279.105 691.69 278.948C690.55 273.188 690.14 265.638 685.25 261.698C685.243 261.691 684.997 261.628 684.51 261.508C684.11 261.415 683.793 261.515 683.56 261.808ZM445.28 290.198C451.093 291.618 456.677 293.665 462.03 296.338C462.383 296.518 462.617 296.418 462.73 296.038L469.63 272.798C469.763 272.338 469.593 272.088 469.12 272.048L455.28 270.838C454.84 270.798 454.523 270.975 454.33 271.368L445.07 289.758C445.05 289.799 445.039 289.844 445.039 289.89C445.039 289.936 445.049 289.982 445.069 290.024C445.089 290.066 445.119 290.104 445.155 290.134C445.192 290.164 445.234 290.186 445.28 290.198ZM427.46 287.748L440.99 289.168C441.11 289.179 441.23 289.154 441.334 289.095C441.438 289.036 441.521 288.946 441.57 288.838L449.25 272.498C449.457 272.051 449.327 271.908 448.86 272.068C440.25 274.998 433.54 281.048 427.3 287.298C427.04 287.558 427.093 287.708 427.46 287.748ZM465.63 298.238C471.557 301.751 476.983 305.925 481.91 310.758C482.263 311.105 482.487 311.035 482.58 310.548L488.26 281.038C488.353 280.558 488.193 280.188 487.78 279.928C483.227 277.048 478.38 274.778 473.24 273.118C473.153 273.09 473.06 273.079 472.969 273.086C472.878 273.094 472.789 273.119 472.708 273.161C472.627 273.203 472.555 273.261 472.497 273.331C472.439 273.4 472.396 273.481 472.37 273.568L465.25 297.268C465.195 297.447 465.203 297.641 465.272 297.816C465.341 297.992 465.467 298.141 465.63 298.238ZM526.74 277.188C525.92 291.415 524.99 305.648 523.95 319.888C523.837 321.421 524.063 322.908 524.63 324.348C528.657 334.615 532.277 345.045 535.49 355.638C535.504 355.682 535.532 355.72 535.571 355.745C535.609 355.771 535.655 355.782 535.701 355.777C535.747 355.773 535.79 355.752 535.823 355.719C535.855 355.687 535.876 355.644 535.88 355.598C536.993 340.585 538.093 325.505 539.18 310.358C539.32 308.405 539.11 306.525 538.55 304.718C535.51 294.958 531.753 285.505 527.28 276.358C527.256 276.298 527.212 276.249 527.154 276.219C527.097 276.189 527.031 276.18 526.969 276.195C526.906 276.209 526.85 276.246 526.812 276.298C526.774 276.35 526.755 276.414 526.76 276.478C526.767 276.671 526.76 276.908 526.74 277.188ZM503.89 295.308C500.39 290.648 496.05 286.818 491.34 282.468C490.907 282.068 490.633 282.158 490.52 282.738L484.67 312.938C484.642 313.081 484.648 313.228 484.688 313.369C484.728 313.51 484.801 313.64 484.9 313.748C490.72 320.055 495.827 326.895 500.22 334.268C500.279 334.372 500.371 334.454 500.481 334.501C500.59 334.549 500.713 334.559 500.83 334.532C500.948 334.504 501.054 334.439 501.133 334.346C501.212 334.254 501.26 334.139 501.27 334.018L504.19 296.348C504.223 295.961 504.123 295.615 503.89 295.308ZM691.65 287.078C688.37 288.508 687.86 291.468 687.09 294.538C674.05 346.951 666.47 400.131 664.35 454.078C663.99 463.218 663.06 471.998 662.27 480.988C662.237 481.395 662.4 481.505 662.76 481.318C663.153 481.111 663.383 480.735 663.45 480.188C666.583 452.588 669.937 425.015 673.51 397.468C676.637 373.321 680.867 350.328 686.2 328.488C688.18 320.368 691.45 312.421 696.01 304.648C696.163 304.388 696.213 304.108 696.16 303.808L693.33 287.988C693.298 287.806 693.225 287.634 693.117 287.484C693.01 287.334 692.87 287.21 692.708 287.123C692.546 287.035 692.367 286.986 692.183 286.978C692 286.97 691.818 287.004 691.65 287.078ZM697.87 301.928C697.71 302.221 697.873 302.375 698.36 302.388C698.6 302.395 698.827 302.345 699.04 302.238L700.57 301.468C700.943 301.275 701.067 300.978 700.94 300.578C699.55 296.188 698.99 291.598 696.29 289.208C695.87 288.835 695.71 288.925 695.81 289.478L697.94 301.518C697.967 301.665 697.943 301.801 697.87 301.928ZM410.82 310.218C417.347 311.405 423.73 313.125 429.97 315.378C430.357 315.518 430.63 315.395 430.79 315.008L438.19 296.718C438.357 296.305 438.22 296.068 437.78 296.008C432.273 295.248 426.74 295.021 421.18 295.328C420.773 295.348 420.45 295.528 420.21 295.868L410.52 309.488C410.475 309.552 410.447 309.627 410.439 309.705C410.43 309.783 410.442 309.862 410.471 309.934C410.501 310.007 410.549 310.071 410.61 310.121C410.671 310.17 410.743 310.203 410.82 310.218ZM390.74 308.068L404.43 309.188C404.802 309.218 405.175 309.148 405.509 308.984C405.844 308.82 406.127 308.569 406.33 308.258L413.82 296.758C413.865 296.691 413.888 296.611 413.886 296.531C413.884 296.45 413.857 296.372 413.809 296.307C413.761 296.242 413.694 296.194 413.617 296.169C413.54 296.144 413.457 296.144 413.38 296.168C405.087 298.588 397.5 302.411 390.62 307.638C390.28 307.891 390.32 308.035 390.74 308.068ZM433.73 316.848C440.717 319.828 447.333 323.481 453.58 327.808C453.967 328.075 454.22 327.981 454.34 327.528L460.76 303.408C460.8 303.259 460.786 303.101 460.72 302.96C460.654 302.819 460.541 302.705 460.4 302.638C454.693 299.951 448.747 297.985 442.56 296.738C442.233 296.671 442.007 296.788 441.88 297.088L433.7 316.778C433.697 316.784 433.695 316.791 433.695 316.799C433.695 316.806 433.696 316.813 433.699 316.82C433.702 316.826 433.706 316.832 433.711 316.837C433.717 316.842 433.723 316.846 433.73 316.848ZM506.24 299.238L503.01 338.128C502.983 338.461 503.05 338.771 503.21 339.058C508.21 348.085 512.693 357.361 516.66 366.888C516.686 366.945 516.73 366.991 516.785 367.021C516.84 367.051 516.903 367.062 516.965 367.053C517.027 367.044 517.084 367.015 517.128 366.971C517.172 366.927 517.201 366.87 517.21 366.808C518.463 354.441 519.727 342.031 521 329.578C521.24 327.225 521.22 325.721 520.94 325.068C517.033 315.941 512.3 307.288 506.74 299.108C506.71 299.058 506.664 299.02 506.611 298.999C506.557 298.977 506.498 298.973 506.442 298.988C506.386 299.002 506.336 299.034 506.3 299.079C506.263 299.124 506.242 299.18 506.24 299.238ZM456.68 330.018C463.76 335.838 468.81 341.228 475.13 347.958C475.463 348.318 475.673 348.258 475.76 347.778L481.22 317.918C481.25 317.749 481.239 317.575 481.187 317.413C481.134 317.25 481.043 317.104 480.92 316.988C475.787 312.155 470.173 307.965 464.08 304.418C463.667 304.178 463.397 304.291 463.27 304.758L456.58 329.678C456.562 329.74 456.562 329.806 456.58 329.866C456.598 329.927 456.632 329.979 456.68 330.018ZM702.61 327.528C703.697 326.035 704.89 324.635 706.19 323.328C706.443 323.081 706.527 322.788 706.44 322.448L703.19 308.978C703.166 308.883 703.123 308.794 703.063 308.716C703.002 308.639 702.927 308.576 702.841 308.531C702.754 308.485 702.66 308.459 702.563 308.453C702.467 308.447 702.37 308.463 702.28 308.498L699.78 309.438C699.427 309.571 699.277 309.825 699.33 310.198L701.89 327.988C701.9 328.047 701.928 328.101 701.972 328.142C702.015 328.183 702.071 328.208 702.131 328.214C702.19 328.219 702.25 328.205 702.3 328.173C702.351 328.142 702.389 328.094 702.41 328.038C702.45 327.918 702.49 327.805 702.53 327.698C702.55 327.638 702.577 327.581 702.61 327.528ZM709.02 321.218L711.57 320.038C711.837 319.918 711.933 319.715 711.86 319.428C710.94 315.935 709.267 312.895 706.84 310.308C706.778 310.247 706.697 310.207 706.611 310.194C706.524 310.182 706.436 310.198 706.359 310.239C706.282 310.28 706.22 310.345 706.182 310.424C706.145 310.503 706.133 310.592 706.15 310.678L708.58 320.998C708.591 321.044 708.611 321.086 708.641 321.123C708.67 321.16 708.706 321.19 708.748 321.211C708.79 321.232 708.837 321.244 708.883 321.245C708.93 321.246 708.977 321.237 709.02 321.218ZM696.6 312.058C693.7 316.711 691.55 321.388 690.15 326.088C686.063 339.821 682.877 353.765 680.59 367.918C674.6 404.918 670.3 442.168 665.59 479.348C665.557 479.655 665.687 479.771 665.98 479.698L666.26 479.628C666.46 479.575 666.58 479.445 666.62 479.238C671.253 451.445 676.177 423.708 681.39 396.028C685.3 375.238 690.43 351.598 699.93 331.678C700.083 331.351 700.137 331.011 700.09 330.658L697.56 312.268C697.547 312.161 697.501 312.06 697.429 311.98C697.356 311.9 697.26 311.844 697.155 311.821C697.049 311.798 696.939 311.808 696.84 311.851C696.74 311.893 696.656 311.966 696.6 312.058ZM552.87 417.678C555.6 427.558 571.65 483.678 579.83 486.248C579.891 486.269 579.956 486.273 580.018 486.259C580.081 486.245 580.138 486.213 580.185 486.168C580.231 486.123 580.264 486.065 580.281 486.002C580.298 485.938 580.298 485.871 580.28 485.808C563.85 429.208 557.34 370.548 541.41 313.848C541.396 313.799 541.365 313.756 541.322 313.728C541.28 313.699 541.229 313.686 541.179 313.691C541.128 313.695 541.08 313.718 541.044 313.754C541.008 313.79 540.985 313.837 540.98 313.888C540.06 328.721 539.047 343.511 537.94 358.258C537.78 360.408 537.56 362.038 538.15 364.198C543.037 382.031 547.943 399.858 552.87 417.678ZM483.29 320.738L477.8 350.538C477.775 350.693 477.781 350.851 477.819 351.002C477.857 351.154 477.925 351.295 478.02 351.418C483.96 359.078 489.373 367.098 494.26 375.478C494.753 376.318 495.07 376.255 495.21 375.288L499.96 342.268C500.013 341.901 499.943 341.558 499.75 341.238C495.283 333.811 490.147 326.881 484.34 320.448C483.787 319.835 483.437 319.931 483.29 320.738ZM712.97 342.298C712.981 342.357 713.008 342.412 713.048 342.457C713.087 342.503 713.138 342.537 713.195 342.556C713.252 342.575 713.313 342.579 713.372 342.567C713.43 342.555 713.485 342.528 713.53 342.488L718.39 338.168C718.44 338.124 718.476 338.067 718.494 338.003C718.512 337.939 718.51 337.871 718.49 337.808L714.81 327.008C714.783 326.928 714.726 326.861 714.652 326.821C714.578 326.78 714.492 326.768 714.41 326.788L710.44 327.678C710.355 327.697 710.28 327.748 710.232 327.821C710.184 327.893 710.165 327.982 710.18 328.068L712.97 342.298ZM724.43 335.078C723.74 333.038 721.29 329.178 719.11 328.588C719.049 328.572 718.985 328.573 718.924 328.59C718.864 328.608 718.809 328.642 718.766 328.688C718.723 328.734 718.693 328.791 718.68 328.852C718.666 328.914 718.67 328.978 718.69 329.038L721.12 336.108C721.253 336.501 721.513 336.631 721.9 336.498L724.1 335.748C724.433 335.635 724.543 335.411 724.43 335.078ZM707.49 329.528C704.78 331.278 702.73 334.418 703.1 337.418C703.793 343.171 704.38 348.871 704.86 354.518C704.862 354.573 704.882 354.626 704.917 354.668C704.951 354.71 704.999 354.74 705.053 354.753C705.106 354.765 705.163 354.76 705.213 354.737C705.263 354.715 705.304 354.676 705.33 354.628L710.9 345.548C711.055 345.29 711.108 344.987 711.05 344.698L708.11 329.788C708.03 329.395 707.823 329.308 707.49 329.528ZM522.87 331.028L519.06 370.218C518.968 371.185 519.098 372.16 519.44 373.068L531.07 403.508C531.09 403.566 531.129 403.615 531.181 403.646C531.232 403.678 531.294 403.691 531.355 403.683C531.416 403.675 531.474 403.646 531.518 403.602C531.563 403.557 531.591 403.5 531.6 403.438C532.893 391.145 534.03 378.915 535.01 366.748C535.117 365.408 535.027 364.241 534.74 363.248C531.44 352.068 527.683 341.298 523.47 330.938C523.15 330.158 522.95 330.188 522.87 331.028ZM700.42 339.038C695.98 346.078 693.15 357.438 691.87 362.278C681.85 400.248 675.64 438.948 669.14 477.628C669.06 478.088 669.21 478.185 669.59 477.918C669.91 477.698 670.123 477.371 670.23 476.938C679.45 437.818 687.92 396.658 702.39 360.558C702.943 359.165 703.157 357.738 703.03 356.278C702.51 350.585 701.89 344.891 701.17 339.198C701.077 338.451 700.827 338.398 700.42 339.038ZM726.35 354.848C726.365 354.899 726.391 354.945 726.427 354.984C726.463 355.022 726.508 355.052 726.557 355.07C726.607 355.089 726.66 355.096 726.713 355.09C726.765 355.084 726.816 355.066 726.86 355.038L732.57 351.288C732.639 351.243 732.688 351.174 732.71 351.095C732.733 351.016 732.725 350.932 732.69 350.858L728.77 342.758C728.739 342.693 728.689 342.64 728.626 342.606C728.563 342.572 728.491 342.559 728.42 342.568L723.57 343.228C723.523 343.235 723.478 343.252 723.438 343.277C723.397 343.302 723.363 343.336 723.337 343.376C723.31 343.415 723.292 343.46 723.284 343.507C723.276 343.554 723.278 343.602 723.29 343.648L726.35 354.848ZM740.48 348.908C740.565 348.889 740.642 348.845 740.702 348.782C740.762 348.719 740.802 348.64 740.817 348.555C740.831 348.469 740.821 348.381 740.786 348.301C740.751 348.222 740.693 348.155 740.62 348.108L734.35 344.158C734.27 344.106 734.176 344.082 734.081 344.089C733.987 344.095 733.897 344.132 733.825 344.194C733.753 344.256 733.703 344.339 733.682 344.432C733.661 344.524 733.671 344.621 733.71 344.708L735.81 349.588C735.85 349.683 735.922 349.761 736.013 349.808C736.104 349.856 736.209 349.87 736.31 349.848L740.48 348.908ZM714.66 348.898C714.527 349.004 714.424 349.143 714.362 349.302C714.301 349.46 714.283 349.631 714.31 349.798L716.71 365.478C716.763 365.805 716.897 365.841 717.11 365.588L723.87 357.688C723.956 357.583 724.016 357.459 724.044 357.326C724.072 357.194 724.067 357.057 724.03 356.928L720.72 344.978C720.58 344.471 720.303 344.381 719.89 344.708L714.66 348.898ZM501.78 345.468L496.9 379.008C496.847 379.341 496.9 379.658 497.06 379.958L511.79 407.488C511.816 407.54 511.858 407.582 511.91 407.609C511.962 407.635 512.021 407.644 512.079 407.633C512.136 407.623 512.189 407.595 512.228 407.552C512.268 407.51 512.293 407.456 512.3 407.398C513.68 397.051 514.933 386.788 516.06 376.608C516.22 375.195 516.027 373.841 515.48 372.548C511.573 363.288 507.173 354.231 502.28 345.378C502.252 345.33 502.21 345.291 502.16 345.268C502.109 345.245 502.053 345.237 501.998 345.247C501.944 345.257 501.893 345.284 501.854 345.323C501.815 345.362 501.789 345.413 501.78 345.468ZM711.79 352.548C709.1 356.028 705.52 360.758 705.95 365.198C706.47 370.678 706.853 376.215 707.1 381.808C707.105 381.86 707.126 381.909 707.16 381.948C707.194 381.987 707.24 382.015 707.291 382.027C707.341 382.039 707.395 382.035 707.443 382.016C707.491 381.996 707.532 381.962 707.56 381.918L714.66 369.118C714.764 368.923 714.806 368.703 714.78 368.488L712.54 352.738C712.447 352.078 712.197 352.015 711.79 352.548ZM751.09 361.088C748.56 355.308 744.59 355.628 739.09 356.428C738.763 356.475 738.66 356.651 738.78 356.958L741.92 365.288C742.027 365.581 742.223 365.661 742.51 365.528L750.82 361.788C751.14 361.641 751.23 361.408 751.09 361.088ZM730.52 374.528C730.533 374.587 730.561 374.642 730.602 374.687C730.642 374.732 730.694 374.765 730.751 374.785C730.809 374.804 730.87 374.808 730.929 374.796C730.989 374.784 731.044 374.757 731.09 374.718L739.23 367.618C739.285 367.571 739.324 367.508 739.342 367.439C739.36 367.369 739.356 367.295 739.33 367.228L735.53 357.458C735.512 357.411 735.484 357.368 735.448 357.333C735.412 357.297 735.369 357.27 735.321 357.253C735.274 357.236 735.223 357.229 735.173 357.233C735.123 357.238 735.074 357.253 735.03 357.278L728.05 361.198C727.987 361.234 727.936 361.289 727.906 361.356C727.875 361.422 727.866 361.496 727.88 361.568L730.52 374.528ZM756.27 360.798C756.406 360.805 756.541 360.765 756.652 360.685C756.763 360.605 756.843 360.489 756.879 360.357C756.915 360.226 756.905 360.085 756.851 359.96C756.796 359.835 756.701 359.732 756.58 359.668L754.78 358.758C754.716 358.726 754.644 358.714 754.574 358.722C754.503 358.731 754.436 358.759 754.381 358.805C754.326 358.85 754.285 358.911 754.264 358.978C754.243 359.046 754.241 359.119 754.26 359.188C754.54 360.175 755.21 360.711 756.27 360.798ZM725.68 363.638C725.667 363.581 725.638 363.529 725.597 363.487C725.556 363.445 725.504 363.416 725.447 363.401C725.391 363.387 725.331 363.388 725.275 363.405C725.219 363.422 725.169 363.454 725.13 363.498L717.65 372.158C717.621 372.19 717.599 372.228 717.585 372.27C717.572 372.311 717.566 372.355 717.57 372.398L719.16 388.728C719.166 388.792 719.19 388.852 719.231 388.902C719.271 388.952 719.326 388.988 719.387 389.006C719.449 389.025 719.514 389.024 719.575 389.005C719.636 388.985 719.69 388.948 719.73 388.898L728.48 377.528C728.508 377.491 728.528 377.449 728.538 377.404C728.549 377.36 728.549 377.313 728.54 377.268L725.68 363.638ZM703.22 367.558C697.327 381.931 692.503 396.661 688.75 411.748C683.523 432.808 678.397 453.898 673.37 475.018C673.303 475.298 673.39 475.355 673.63 475.188C673.81 475.061 673.933 474.901 674 474.708C683.94 446.708 692.83 416.608 704.63 388.238C706.28 384.258 704.66 372.118 703.92 367.638C703.78 366.798 703.547 366.771 703.22 367.558ZM770.68 370.728C768.38 366.898 762.7 366.958 758.61 367.758C758.35 367.805 758.267 367.951 758.36 368.198L760.48 374.148C760.607 374.495 760.843 374.608 761.19 374.488L770.47 371.288C770.77 371.188 770.84 371.001 770.68 370.728ZM746.77 382.168C746.788 382.232 746.821 382.291 746.865 382.341C746.91 382.39 746.966 382.428 747.028 382.453C747.09 382.477 747.157 382.486 747.223 382.48C747.289 382.474 747.353 382.453 747.41 382.418L757.55 376.088C757.634 376.034 757.697 375.953 757.728 375.858C757.759 375.764 757.756 375.661 757.72 375.568L754.83 368.298C754.79 368.195 754.711 368.111 754.61 368.064C754.51 368.018 754.395 368.012 754.29 368.048L744.3 371.588C744.196 371.622 744.109 371.695 744.057 371.792C744.005 371.889 743.991 372.002 744.02 372.108L746.77 382.168ZM537 371.228C535.44 383.221 534.313 395.215 533.62 407.208C533.52 408.908 533.77 410.548 534.37 412.128C543.17 435.378 553.61 461.168 570.7 482.018C570.755 482.086 570.832 482.131 570.918 482.146C571.004 482.161 571.092 482.144 571.167 482.099C571.241 482.054 571.297 481.983 571.323 481.9C571.349 481.817 571.345 481.728 571.31 481.648C556.52 446.238 547.23 408.308 537.41 371.208C537.23 370.521 537.093 370.528 537 371.228ZM733.46 394.508C733.468 394.563 733.491 394.615 733.526 394.658C733.562 394.701 733.609 394.733 733.662 394.751C733.715 394.769 733.772 394.771 733.827 394.758C733.881 394.745 733.931 394.718 733.97 394.678L744.56 384.568C744.601 384.529 744.631 384.479 744.645 384.424C744.659 384.37 744.657 384.312 744.64 384.258L741.54 373.658C741.527 373.61 741.501 373.566 741.466 373.53C741.432 373.494 741.388 373.468 741.341 373.453C741.293 373.438 741.242 373.435 741.193 373.445C741.144 373.454 741.098 373.476 741.06 373.508L731.82 381.148C731.78 381.18 731.749 381.221 731.73 381.269C731.711 381.316 731.704 381.367 731.71 381.418L733.46 394.508ZM715.17 376.108C712.74 380.128 707.63 387.648 707.85 392.238C708.09 397.231 708.307 402.255 708.5 407.308C708.52 407.808 708.65 407.841 708.89 407.408L717.39 392.398C717.507 392.203 717.556 391.975 717.53 391.748L715.85 376.258C715.84 376.182 715.807 376.112 715.756 376.055C715.705 375.999 715.637 375.96 715.563 375.944C715.488 375.927 715.411 375.934 715.34 375.964C715.27 375.993 715.211 376.043 715.17 376.108ZM794.49 379.968C790.84 376.098 785.4 377.218 780.76 377.228C780.685 377.228 780.611 377.248 780.546 377.285C780.48 377.322 780.425 377.375 780.386 377.439C780.347 377.503 780.325 377.576 780.322 377.651C780.319 377.726 780.336 377.801 780.37 377.868L782.9 382.848C783.013 383.068 783.19 383.151 783.43 383.098L794.3 380.608C794.367 380.594 794.429 380.562 794.479 380.515C794.529 380.469 794.566 380.41 794.585 380.344C794.605 380.279 794.606 380.209 794.589 380.143C794.573 380.077 794.538 380.016 794.49 379.968ZM775.69 377.628C775.653 377.568 775.598 377.523 775.534 377.497C775.469 377.472 775.397 377.469 775.33 377.488L762.99 380.858C762.949 380.868 762.911 380.887 762.877 380.912C762.844 380.937 762.816 380.969 762.794 381.005C762.773 381.041 762.759 381.081 762.753 381.123C762.747 381.165 762.749 381.207 762.76 381.248L764.97 389.688C764.981 389.732 765.001 389.774 765.03 389.81C765.058 389.846 765.094 389.875 765.135 389.896C765.176 389.917 765.22 389.929 765.266 389.931C765.312 389.933 765.358 389.925 765.4 389.908L779.17 384.428C779.213 384.411 779.252 384.385 779.284 384.352C779.316 384.318 779.341 384.279 779.356 384.235C779.371 384.191 779.377 384.145 779.372 384.098C779.368 384.052 779.353 384.008 779.33 383.968L775.69 377.628ZM518.68 380.018C518.652 379.952 518.603 379.897 518.541 379.861C518.478 379.825 518.406 379.811 518.335 379.82C518.263 379.829 518.197 379.861 518.146 379.911C518.094 379.961 518.061 380.027 518.05 380.098L514.01 411.918C514.002 411.987 514.016 412.057 514.05 412.118L527.75 436.658C527.785 436.717 527.838 436.763 527.901 436.79C527.964 436.817 528.034 436.824 528.101 436.81C528.168 436.796 528.229 436.761 528.276 436.71C528.322 436.66 528.352 436.596 528.36 436.528L530.83 411.548C530.835 411.497 530.828 411.446 530.81 411.398L518.68 380.018ZM750.08 398.078C750.092 398.14 750.118 398.199 750.158 398.249C750.197 398.299 750.248 398.338 750.306 398.364C750.364 398.39 750.428 398.401 750.491 398.396C750.555 398.391 750.616 398.372 750.67 398.338L762.23 391.448C762.304 391.405 762.362 391.338 762.395 391.258C762.427 391.179 762.433 391.091 762.41 391.008L760.08 382.568C760.064 382.509 760.035 382.456 759.994 382.41C759.954 382.365 759.904 382.33 759.847 382.308C759.791 382.286 759.731 382.277 759.67 382.282C759.61 382.287 759.552 382.306 759.5 382.338L748.55 388.828C748.48 388.868 748.424 388.929 748.39 389.003C748.356 389.076 748.345 389.158 748.36 389.238L750.08 398.078ZM729.68 384.148C729.671 384.086 729.644 384.027 729.602 383.98C729.56 383.934 729.506 383.9 729.445 383.884C729.384 383.868 729.32 383.87 729.26 383.891C729.201 383.911 729.148 383.948 729.11 383.998L719.96 396.018C719.916 396.079 719.895 396.153 719.9 396.228L720.72 410.048C720.724 410.113 720.747 410.175 720.787 410.226C720.827 410.277 720.881 410.314 720.943 410.334C721.005 410.353 721.071 410.354 721.133 410.335C721.195 410.316 721.25 410.279 721.29 410.228L731.53 397.338C731.559 397.303 731.579 397.263 731.591 397.22C731.604 397.177 731.606 397.132 731.6 397.088L729.68 384.148ZM823.52 422.748C832.12 447.838 840.49 478.268 862.66 495.088C862.748 495.156 862.849 495.205 862.957 495.233C863.064 495.26 863.177 495.265 863.286 495.247C863.396 495.23 863.501 495.189 863.595 495.129C863.688 495.069 863.768 494.99 863.83 494.898C868.8 487.508 874.25 480.558 883.02 477.508C883.373 477.388 883.417 477.195 883.15 476.928C873.443 467.161 866.16 455.898 861.3 443.138C852.97 421.298 842.55 399.858 822.19 387.468C818.32 385.108 812.12 385.848 807.81 386.358C807.483 386.391 807.403 386.551 807.57 386.838C813.483 396.998 818.8 408.968 823.52 422.748ZM800.63 386.908L786.54 389.648C786.073 389.741 785.917 390.015 786.07 390.468C794.24 414.808 799.09 438.928 806.51 464.488C810.93 479.718 817.74 496.528 828.6 507.428C828.853 507.688 829.063 507.655 829.23 507.328C832.97 499.758 837.84 489.528 846.53 486.758C846.883 486.645 846.96 486.431 846.76 486.118C833.36 465.498 827.49 444.278 818.51 418.258C815.42 409.318 809.06 394.958 801.77 387.268C801.457 386.941 801.077 386.821 800.63 386.908ZM834.03 388.638C846.67 400.928 855.19 417.458 861.44 434.068C869.68 455.988 883.27 473.088 903.6 484.848C903.9 485.021 904.163 484.978 904.39 484.718C910.57 477.708 917.82 471.928 926.75 469.958C927.197 469.858 927.243 469.661 926.89 469.368C913.67 458.558 905.68 447.048 897.34 432.418C883.367 407.938 862.097 392.861 833.53 387.188C833.11 387.108 832.937 387.278 833.01 387.698C833.05 387.918 833.157 388.081 833.33 388.188C833.757 388.441 833.99 388.591 834.03 388.638ZM735.05 401.258C734.537 401.745 734.31 402.301 734.37 402.928C734.617 405.328 734.85 407.771 735.07 410.258C735.09 410.471 735.183 410.511 735.35 410.378L747.72 400.228C747.838 400.131 747.927 400.004 747.978 399.859C748.029 399.715 748.04 399.559 748.01 399.408L746.4 391.478C746.32 391.085 746.12 391.011 745.8 391.258C741.79 394.328 738.66 397.858 735.05 401.258ZM799.66 522.208C802.39 514.068 806.73 501.008 815.1 497.468C815.433 497.328 815.52 497.098 815.36 496.778C806.47 478.658 801.91 460.808 797.2 440.408C793.347 423.715 788.547 407.358 782.8 391.338C782.769 391.248 782.72 391.166 782.657 391.095C782.593 391.025 782.515 390.968 782.428 390.928C782.342 390.888 782.248 390.865 782.152 390.862C782.056 390.859 781.96 390.874 781.87 390.908L767.26 396.508C767.096 396.568 766.958 396.686 766.872 396.84C766.786 396.993 766.757 397.174 766.79 397.348C768.52 406.068 770.4 414.788 771.86 423.528C776.03 448.538 780.03 473.868 788 497.998C790.827 506.571 794.62 514.651 799.38 522.238C799.396 522.262 799.419 522.281 799.445 522.293C799.471 522.305 799.5 522.309 799.529 522.306C799.558 522.303 799.585 522.293 799.608 522.275C799.631 522.258 799.649 522.235 799.66 522.208ZM705.48 394.688C695.55 418.708 687.68 443.958 679.23 468.808C679.228 468.814 679.228 468.821 679.231 468.827C679.233 468.834 679.237 468.839 679.243 468.843C679.249 468.846 679.256 468.847 679.262 468.847C679.269 468.846 679.275 468.843 679.28 468.838C679.347 468.785 679.44 468.751 679.56 468.738C679.78 468.711 679.94 468.595 680.04 468.388L706.11 412.768C706.43 412.088 706.577 411.368 706.55 410.608L705.94 394.768C705.913 394.035 705.76 394.008 705.48 394.688ZM775.34 537.498C777.03 529.908 781.39 512.168 788.53 510.438C788.883 510.351 789 510.135 788.88 509.788C783.413 494.168 779.457 479.485 777.01 465.738C773.023 443.358 768.877 420.978 764.57 398.598C764.47 398.045 764.177 397.908 763.69 398.188L751.82 405.048C751.433 405.275 751.267 405.608 751.32 406.048C752.97 419.798 753.04 434.428 754.66 447.208C756.387 460.821 758.38 474.391 760.64 487.918C762.79 500.798 767.27 523.078 774.41 537.608C774.823 538.448 775.133 538.411 775.34 537.498ZM717.41 400.348C714.63 404.968 712.057 409.595 709.69 414.228C707.91 417.728 708.81 424.028 708.84 427.958C708.839 428.009 708.854 428.06 708.885 428.101C708.915 428.142 708.959 428.172 709.008 428.186C709.058 428.2 709.11 428.197 709.158 428.177C709.205 428.157 709.245 428.123 709.27 428.078L718.82 413.608C718.904 413.484 718.943 413.333 718.93 413.178L718.15 400.528C718.097 399.668 717.85 399.608 717.41 400.348ZM731.28 405.348L721.24 418.358C721.156 418.475 721.11 418.615 721.11 418.758L721.31 425.428C721.323 425.835 721.463 425.885 721.73 425.578L732.72 412.858C732.933 412.611 733.027 412.321 733 411.988L732.49 405.718C732.48 405.58 732.428 405.448 732.342 405.339C732.256 405.231 732.139 405.151 732.007 405.111C731.876 405.07 731.735 405.071 731.605 405.114C731.475 405.156 731.362 405.238 731.28 405.348ZM736.04 417.388C735.903 417.5 735.793 417.643 735.718 417.806C735.644 417.969 735.607 418.147 735.61 418.328C735.92 427.978 735.89 437.548 736.74 446.958C740.04 483.628 742.84 522.328 753.75 557.668C753.771 557.729 753.811 557.781 753.864 557.817C753.918 557.852 753.981 557.869 754.045 557.865C754.11 557.86 754.17 557.834 754.218 557.791C754.266 557.749 754.298 557.691 754.31 557.628C755.33 550.508 758.71 528.268 765.74 525.168C766.04 525.035 766.147 524.811 766.06 524.498C759.51 500.598 755.97 475.738 752.92 451.178C751.24 437.688 751.08 422.358 749.51 407.898C749.41 407.011 749.017 406.848 748.33 407.408L736.04 417.388ZM530.48 440.778C537.45 452.188 546.73 463.748 557.64 472.958C558.38 473.585 558.51 473.478 558.03 472.638C547.84 455.078 540.05 436.468 533.05 417.428C533.029 417.372 532.989 417.324 532.938 417.293C532.887 417.262 532.826 417.249 532.767 417.256C532.707 417.262 532.651 417.289 532.608 417.331C532.566 417.373 532.538 417.428 532.53 417.488L530.28 439.888C530.248 440.199 530.318 440.512 530.48 440.778ZM706.2 420.798L688.48 459.218C687.533 461.271 687.687 461.358 688.94 459.478C695.007 450.378 700.943 441.191 706.75 431.918C706.92 431.643 707.01 431.325 707.01 430.998V420.968C707.01 420.872 706.977 420.78 706.917 420.707C706.858 420.634 706.774 420.583 706.68 420.563C706.586 420.543 706.488 420.556 706.401 420.599C706.313 420.641 706.243 420.711 706.2 420.798ZM733.19 420.688C728.73 424.258 724.31 430.198 721.58 433.838C721.379 434.103 721.27 434.423 721.27 434.748C721.25 437.955 721.277 440.101 721.35 441.188C723.55 474.088 725.53 506.998 729.42 539.758C731.62 558.285 734.387 573.701 737.72 586.008C739.687 593.275 742.37 600.221 745.77 606.848C745.808 606.92 745.868 606.979 745.941 607.015C746.015 607.052 746.097 607.064 746.178 607.051C746.259 607.037 746.333 606.999 746.391 606.941C746.449 606.883 746.487 606.809 746.5 606.728C748.4 593.715 750.387 580.648 752.46 567.528C752.7 566.021 752.597 564.531 752.15 563.058C748.363 550.471 745.64 538.868 743.98 528.248C739.867 501.901 736.563 472.898 734.07 441.238C733.717 436.831 733.633 430.085 733.82 420.998C733.833 420.445 733.623 420.341 733.19 420.688ZM718.37 422.408L709 436.758C708.843 436.993 708.76 437.271 708.76 437.558V443.998C708.758 444.061 708.777 444.122 708.813 444.173C708.85 444.224 708.902 444.262 708.961 444.281C709.021 444.3 709.085 444.3 709.145 444.279C709.204 444.259 709.255 444.22 709.29 444.168C712.39 439.795 715.353 435.301 718.18 430.688C719.77 428.098 719.3 425.458 719.25 422.658C719.223 421.625 718.93 421.541 718.37 422.408ZM719 437.648L708.3 453.478C708.242 453.556 708.21 453.654 708.21 453.758C705.37 520.411 714.743 585.221 736.33 648.188C736.352 648.247 736.389 648.3 736.437 648.341C736.486 648.381 736.544 648.408 736.605 648.418C736.667 648.429 736.73 648.422 736.787 648.399C736.844 648.376 736.893 648.338 736.93 648.288C738.203 646.621 739.127 644.685 739.7 642.478C742.047 633.451 743.877 624.308 745.19 615.048C745.237 614.708 745.18 614.385 745.02 614.078C742.74 609.768 740.49 605.438 739 600.858C731.2 576.728 728.09 550.918 725.76 525.748C723.04 496.415 720.853 467.068 719.2 437.708C719.199 437.685 719.191 437.662 719.177 437.644C719.163 437.626 719.144 437.612 719.122 437.606C719.1 437.599 719.076 437.6 719.054 437.607C719.032 437.615 719.013 437.629 719 437.648ZM706.41 440.678L694.17 459.668C693.23 461.128 693.397 461.271 694.67 460.098C699.063 456.071 703.09 451.718 706.75 447.038C706.848 446.908 706.904 446.751 706.91 446.588L707.19 440.928C707.198 440.833 707.174 440.738 707.121 440.659C707.069 440.58 706.99 440.521 706.9 440.492C706.809 440.463 706.711 440.465 706.622 440.499C706.533 440.533 706.458 440.596 706.41 440.678ZM1014.99 472.918L1028.76 482.248C1029.04 482.441 1029.34 482.488 1029.66 482.388C1040.67 479.168 1051.03 474.511 1060.74 468.418C1061.19 468.138 1061.15 467.931 1060.64 467.798C1055.89 466.538 1051.1 464.828 1046.17 465.048C1035.32 465.535 1024.94 467.998 1015.03 472.438C1014.99 472.456 1014.95 472.487 1014.92 472.526C1014.89 472.565 1014.87 472.612 1014.87 472.661C1014.86 472.71 1014.87 472.76 1014.89 472.805C1014.92 472.85 1014.95 472.889 1014.99 472.918ZM958.15 479.678C966.44 482.628 974.95 484.858 983.51 485.538C983.869 485.57 984.227 485.462 984.51 485.238L999.22 473.698C999.256 473.671 999.283 473.634 999.299 473.592C999.315 473.55 999.32 473.504 999.311 473.459C999.303 473.414 999.283 473.372 999.253 473.336C999.223 473.301 999.184 473.274 999.14 473.258C993.04 471.308 987.14 470.098 980.69 471.148C972.67 472.455 965.137 475.078 958.09 479.018C958.028 479.051 957.977 479.102 957.943 479.164C957.91 479.227 957.895 479.297 957.902 479.368C957.908 479.438 957.935 479.505 957.979 479.56C958.023 479.615 958.083 479.656 958.15 479.678ZM1020.06 483.628L1007.42 476.528C1006.99 476.281 1006.56 476.301 1006.15 476.588L992.98 485.808C992.913 485.852 992.861 485.916 992.834 485.992C992.807 486.068 992.805 486.15 992.828 486.227C992.852 486.304 992.9 486.371 992.966 486.418C993.031 486.465 993.11 486.49 993.19 486.488C1002.15 486.541 1011.05 485.885 1019.9 484.518C1020 484.502 1020.09 484.456 1020.16 484.386C1020.23 484.316 1020.28 484.227 1020.29 484.129C1020.31 484.032 1020.3 483.931 1020.26 483.841C1020.21 483.752 1020.15 483.677 1020.06 483.628ZM909.42 487.378C909.379 487.417 909.348 487.465 909.331 487.519C909.313 487.572 909.309 487.629 909.319 487.685C909.329 487.74 909.352 487.793 909.387 487.837C909.422 487.881 909.468 487.916 909.52 487.938C916.16 491.005 923.05 493.361 930.19 495.008C930.504 495.081 930.832 495.072 931.142 494.981C931.452 494.89 931.734 494.72 931.96 494.488L944.22 481.778C944.54 481.445 944.5 481.165 944.1 480.938C931.15 473.578 919.51 477.508 909.42 487.378ZM942.2 496.558C949.907 497.105 956.773 496.505 962.8 494.758C963.393 494.585 963.45 494.305 962.97 493.918L951.07 484.318C950.73 484.045 950.387 484.041 950.04 484.308C945.807 487.661 941.99 491.428 938.59 495.608C938.521 495.693 938.479 495.797 938.468 495.905C938.458 496.014 938.479 496.124 938.53 496.221C938.582 496.318 938.66 496.397 938.756 496.45C938.852 496.503 938.961 496.527 939.07 496.518C939.823 496.451 940.867 496.465 942.2 496.558ZM867.56 498.448C873.413 502.001 879.647 504.685 886.26 506.498C886.427 506.542 886.603 506.536 886.767 506.481C886.93 506.426 887.074 506.324 887.18 506.188L899.11 490.838C899.154 490.783 899.186 490.72 899.204 490.652C899.223 490.584 899.227 490.513 899.217 490.444C899.206 490.374 899.182 490.308 899.144 490.248C899.107 490.189 899.058 490.138 899 490.098C890.82 484.638 883.84 482.248 875.34 489.108C872.2 491.635 869.557 494.535 867.41 497.808C867.237 498.075 867.287 498.288 867.56 498.448ZM662.374 489.028C662.307 488.956 662.175 488.95 662.007 489.012C661.839 489.074 661.648 489.198 661.478 489.357C661.393 489.436 661.316 489.521 661.251 489.608C661.185 489.694 661.133 489.78 661.096 489.861C661.06 489.942 661.041 490.016 661.039 490.079C661.037 490.142 661.053 490.193 661.086 490.228C661.153 490.3 661.285 490.305 661.453 490.244C661.621 490.182 661.812 490.058 661.982 489.898C662.067 489.82 662.144 489.735 662.209 489.648C662.275 489.562 662.327 489.476 662.364 489.395C662.4 489.314 662.419 489.24 662.421 489.177C662.423 489.114 662.407 489.063 662.374 489.028ZM967.34 490.658C967.98 492.408 970.15 493.358 971.51 491.768C971.77 491.468 971.707 491.265 971.32 491.158L967.75 490.208C967.689 490.191 967.625 490.191 967.564 490.208C967.503 490.225 967.448 490.259 967.406 490.306C967.363 490.353 967.334 490.41 967.323 490.473C967.311 490.535 967.317 490.599 967.34 490.658ZM611.29 504.248C628.957 506.768 644.84 502.748 658.94 492.188C659.112 492.055 659.23 491.865 659.273 491.653C659.316 491.44 659.281 491.219 659.173 491.031C659.066 490.842 658.895 490.698 658.69 490.626C658.486 490.554 658.262 490.558 658.06 490.638C642.873 496.811 627.07 500.018 610.65 500.258C610.317 500.265 610.16 500.435 610.18 500.768L610.3 503.168C610.333 503.801 610.663 504.161 611.29 504.248ZM892.75 507.948C899.96 509.298 907.2 510.428 914.02 507.218C914.11 507.174 914.189 507.11 914.251 507.031C914.313 506.952 914.356 506.86 914.378 506.763C914.399 506.665 914.398 506.565 914.374 506.469C914.35 506.372 914.304 506.283 914.24 506.208L903.94 494.108C903.876 494.033 903.796 493.974 903.706 493.934C903.616 493.894 903.519 493.874 903.42 493.876C903.322 493.878 903.225 493.902 903.137 493.945C903.049 493.989 902.971 494.051 902.91 494.128L892.46 507.148C892.113 507.581 892.21 507.848 892.75 507.948ZM831.83 510.838C836.657 515.078 842.053 518.421 848.02 520.868C848.174 520.93 848.345 520.934 848.502 520.879C848.658 520.824 848.789 520.713 848.87 520.568L859.43 501.898C859.59 501.611 859.563 501.341 859.35 501.088C846.74 486.128 837.68 498.928 831.69 510.118C831.543 510.391 831.59 510.631 831.83 510.838ZM923.58 501.358C923.627 501.324 923.665 501.279 923.688 501.226C923.711 501.173 923.72 501.114 923.713 501.057C923.706 500.999 923.683 500.945 923.647 500.899C923.612 500.854 923.564 500.819 923.51 500.798L914.16 497.398C914.095 497.373 914.025 497.371 913.958 497.39C913.892 497.409 913.833 497.449 913.792 497.504C913.75 497.56 913.727 497.627 913.727 497.696C913.727 497.765 913.749 497.832 913.79 497.888L918.52 504.558C918.545 504.592 918.576 504.621 918.612 504.643C918.648 504.666 918.689 504.68 918.73 504.687C918.772 504.693 918.815 504.692 918.856 504.681C918.897 504.671 918.936 504.653 918.97 504.628L923.58 501.358ZM595.956 499.604C596 499.514 596 499.404 595.954 499.279C595.909 499.154 595.82 499.017 595.693 498.876C595.566 498.735 595.402 498.593 595.212 498.457C595.022 498.321 594.808 498.195 594.584 498.085C594.36 497.976 594.13 497.885 593.906 497.817C593.682 497.75 593.469 497.708 593.28 497.694C593.09 497.68 592.928 497.694 592.802 497.734C592.675 497.775 592.588 497.842 592.544 497.932C592.5 498.022 592.5 498.132 592.546 498.257C592.591 498.382 592.68 498.518 592.807 498.659C592.934 498.8 593.098 498.943 593.288 499.079C593.478 499.214 593.692 499.341 593.916 499.45C594.14 499.56 594.37 499.651 594.594 499.718C594.818 499.785 595.031 499.827 595.22 499.842C595.41 499.856 595.572 499.842 595.698 499.801C595.825 499.761 595.912 499.693 595.956 499.604ZM600.51 501.548C600.737 501.516 600.944 501.398 601.089 501.218C601.233 501.038 601.305 500.809 601.29 500.578C601.21 499.511 600.547 498.991 599.3 499.018C599.101 499.023 598.907 499.078 598.736 499.178C598.564 499.279 598.421 499.421 598.32 499.593C598.219 499.764 598.164 499.958 598.158 500.156C598.153 500.355 598.198 500.552 598.29 500.728C598.67 501.441 599.41 501.715 600.51 501.548ZM607.485 500.508C607.48 500.408 607.455 500.31 607.412 500.22C607.369 500.13 607.309 500.049 607.235 499.982C607.161 499.915 607.075 499.864 606.981 499.83C606.887 499.797 606.787 499.782 606.687 499.787L606.568 499.793C606.468 499.798 606.37 499.823 606.28 499.866C606.19 499.909 606.109 499.969 606.042 500.043C605.975 500.117 605.923 500.203 605.89 500.297C605.856 500.391 605.842 500.491 605.847 500.591L605.955 502.728C605.96 502.828 605.985 502.925 606.028 503.016C606.071 503.106 606.131 503.187 606.205 503.253C606.279 503.32 606.365 503.372 606.459 503.406C606.553 503.439 606.653 503.454 606.753 503.449L606.872 503.442C606.972 503.437 607.07 503.413 607.16 503.37C607.25 503.327 607.331 503.267 607.398 503.193C607.465 503.119 607.517 503.032 607.55 502.938C607.584 502.844 607.598 502.745 607.593 502.645L607.485 500.508ZM612.19 517.478C630.15 522.318 645.92 515.228 657.92 501.888C658.347 501.421 658.473 501.021 658.3 500.688C658.265 500.619 658.216 500.558 658.156 500.51C658.095 500.462 658.025 500.427 657.951 500.408C657.876 500.389 657.798 500.386 657.722 500.4C657.646 500.414 657.573 500.444 657.51 500.488C643.71 510.068 628.373 513.898 611.5 511.978C611.426 511.969 611.352 511.978 611.282 512.002C611.213 512.027 611.15 512.067 611.098 512.119C611.047 512.171 611.009 512.235 610.986 512.304C610.964 512.373 610.959 512.446 610.97 512.518L611.52 516.718C611.58 517.118 611.803 517.371 612.19 517.478ZM802.25 526.028C805.62 530.178 810.58 534.878 815.57 537.398C815.99 537.605 816.287 537.495 816.46 537.068L825.79 514.488C825.93 514.148 825.903 513.821 825.71 513.508C813.47 493.138 805.29 515.398 802.08 525.108C802.028 525.264 802.017 525.43 802.046 525.591C802.076 525.752 802.146 525.902 802.25 526.028ZM853.51 522.618C860.03 524.338 866.22 525.808 872.21 521.498C872.563 521.238 872.627 520.921 872.4 520.548L863.18 505.128C863.139 505.057 863.079 504.998 863.008 504.958C862.936 504.917 862.855 504.897 862.772 504.898C862.689 504.899 862.608 504.921 862.535 504.964C862.463 505.006 862.402 505.066 862.36 505.138L853.06 521.538C853.004 521.637 852.971 521.748 852.963 521.861C852.956 521.975 852.975 522.089 853.019 522.193C853.062 522.298 853.129 522.39 853.215 522.464C853.3 522.538 853.401 522.59 853.51 522.618ZM597.718 509.614C597.75 509.57 597.749 509.503 597.714 509.416C597.68 509.328 597.612 509.222 597.516 509.104C597.42 508.985 597.297 508.857 597.154 508.725C597.012 508.594 596.852 508.462 596.684 508.338C596.345 508.087 595.994 507.882 595.709 507.766C595.423 507.65 595.227 507.635 595.162 507.722C595.13 507.765 595.131 507.833 595.166 507.92C595.2 508.008 595.268 508.114 595.364 508.232C595.46 508.351 595.583 508.479 595.726 508.61C595.868 508.742 596.028 508.873 596.196 508.997C596.535 509.248 596.886 509.454 597.171 509.57C597.457 509.685 597.653 509.701 597.718 509.614ZM875.81 518.448C875.833 518.492 875.866 518.529 875.906 518.558C875.946 518.586 875.993 518.605 876.042 518.612C876.091 518.619 876.141 518.614 876.187 518.597C876.234 518.581 876.276 518.554 876.31 518.518L881.23 513.228C881.265 513.192 881.29 513.148 881.305 513.1C881.319 513.052 881.321 513.001 881.311 512.952C881.301 512.902 881.28 512.856 881.248 512.817C881.217 512.778 881.176 512.748 881.13 512.728L871.12 508.358C871.061 508.331 870.995 508.324 870.931 508.337C870.868 508.35 870.81 508.382 870.766 508.429C870.722 508.477 870.693 508.537 870.685 508.601C870.677 508.666 870.689 508.731 870.72 508.788L875.81 518.448ZM601.85 512.968C601.91 513.004 601.979 513.023 602.049 513.024C602.119 513.025 602.189 513.008 602.251 512.974C602.313 512.939 602.366 512.89 602.404 512.829C602.443 512.769 602.465 512.699 602.47 512.628C602.537 511.561 602.28 510.615 601.7 509.788C601.557 509.552 601.326 509.382 601.057 509.317C600.789 509.251 600.506 509.295 600.27 509.438C600.034 509.581 599.864 509.812 599.799 510.08C599.733 510.349 599.777 510.632 599.92 510.868C600.393 511.795 601.037 512.495 601.85 512.968ZM613.67 532.498C633.41 541.688 649.06 527.578 657.49 511.008C657.541 510.921 657.558 510.818 657.535 510.72C657.513 510.622 657.454 510.536 657.37 510.48C657.285 510.423 657.182 510.4 657.08 510.414C656.978 510.429 656.886 510.48 656.82 510.558C645.46 523.288 629.82 529.238 612.72 524.938C612.647 524.92 612.571 524.92 612.498 524.937C612.425 524.955 612.358 524.989 612.301 525.038C612.244 525.087 612.2 525.149 612.172 525.219C612.144 525.288 612.133 525.363 612.14 525.438L612.62 531.008C612.651 531.328 612.764 531.634 612.948 531.895C613.132 532.157 613.381 532.364 613.67 532.498ZM607.54 513.738C607.387 514.631 607.613 515.398 608.22 516.038C608.266 516.085 608.325 516.117 608.39 516.128C608.454 516.139 608.521 516.13 608.58 516.101C608.639 516.072 608.687 516.025 608.718 515.967C608.748 515.909 608.76 515.843 608.75 515.778L608.06 511.468C608.049 511.389 608.014 511.316 607.958 511.26C607.902 511.204 607.829 511.167 607.749 511.156C607.67 511.145 607.588 511.16 607.516 511.198C607.444 511.236 607.386 511.295 607.35 511.368C607.103 511.868 607.113 512.358 607.38 512.838C607.535 513.11 607.592 513.428 607.54 513.738ZM787.7 556.308C787.833 556.781 788.18 557.075 788.74 557.188C788.833 557.207 788.929 557.191 789.01 557.143C789.092 557.095 789.152 557.018 789.18 556.928L795.41 535.298C795.663 534.429 795.621 533.497 795.29 532.648L789.76 518.348C789.682 518.144 789.56 517.961 789.402 517.811C789.244 517.661 789.054 517.549 788.846 517.483C788.639 517.416 788.419 517.398 788.203 517.428C787.987 517.458 787.781 517.537 787.6 517.658C781.79 521.478 778.52 535.568 777.02 542.128C776.937 542.475 776.987 542.842 777.16 543.158C779.887 548.258 783.4 552.641 787.7 556.308ZM819.55 539.438C825.7 541.658 831.46 543.378 836.62 537.898C836.9 537.598 836.96 537.258 836.8 536.878L828.86 518.248C828.814 518.141 828.737 518.05 828.64 517.986C828.543 517.922 828.429 517.888 828.314 517.888C828.198 517.888 828.086 517.922 827.991 517.986C827.896 518.05 827.823 518.141 827.78 518.248L819.24 538.738C819.213 538.804 819.199 538.875 819.2 538.947C819.201 539.018 819.217 539.089 819.246 539.154C819.275 539.219 819.316 539.278 819.369 539.327C819.421 539.376 819.483 539.414 819.55 539.438ZM844.14 526.858L834.25 520.868C834.219 520.847 834.183 520.837 834.146 520.839C834.109 520.841 834.074 520.855 834.046 520.879C834.018 520.903 833.998 520.935 833.99 520.971C833.982 521.007 833.985 521.044 834 521.078L839.19 534.298C839.219 534.37 839.266 534.432 839.327 534.48C839.389 534.527 839.462 534.557 839.538 534.566C839.615 534.575 839.693 534.563 839.764 534.532C839.834 534.501 839.895 534.451 839.94 534.388L844.39 528.068C844.737 527.575 844.653 527.171 844.14 526.858ZM603.602 524.317C603.688 524.284 603.756 524.207 603.803 524.092C603.849 523.976 603.873 523.823 603.873 523.642C603.873 523.461 603.85 523.255 603.803 523.036C603.757 522.818 603.689 522.59 603.604 522.367C603.431 521.916 603.196 521.511 602.951 521.239C602.706 520.967 602.471 520.852 602.298 520.919C602.212 520.952 602.144 521.028 602.097 521.144C602.051 521.26 602.027 521.413 602.027 521.594C602.027 521.775 602.05 521.981 602.097 522.199C602.143 522.418 602.211 522.646 602.297 522.869C602.469 523.319 602.704 523.725 602.949 523.997C603.194 524.268 603.429 524.383 603.602 524.317ZM616.2 550.058C636.7 566.758 651.03 536.478 656.27 522.278C656.297 522.218 656.299 522.15 656.277 522.087C656.255 522.024 656.209 521.973 656.151 521.943C656.093 521.914 656.026 521.91 655.966 521.931C655.906 521.953 655.857 521.998 655.83 522.058C646.87 536.938 632.07 548.758 614.07 540.308C613.65 540.115 613.463 540.248 613.51 540.708C613.86 544.078 613.33 547.728 616.2 550.058ZM795.57 524.938L797 528.518C797.032 528.592 797.086 528.653 797.156 528.694C797.225 528.735 797.305 528.753 797.385 528.745C797.466 528.737 797.541 528.704 797.601 528.651C797.661 528.598 797.703 528.526 797.72 528.448C797.847 527.768 797.627 527.175 797.06 526.668C796.866 526.493 796.739 526.253 796.7 525.988C796.607 525.268 796.32 524.821 795.84 524.648C795.54 524.541 795.45 524.638 795.57 524.938ZM608.92 525.568C608.993 526.901 609.17 528.071 609.45 529.078C609.677 529.871 609.817 529.858 609.87 529.038C609.99 527.378 609.937 526.175 609.71 525.428C609.057 523.275 608.793 523.321 608.92 525.568ZM813.21 543.568C808.377 540.321 804.193 536.385 800.66 531.758C800.605 531.687 800.535 531.631 800.454 531.593C800.373 531.555 800.284 531.536 800.194 531.538C800.104 531.54 800.015 531.562 799.935 531.604C799.854 531.646 799.784 531.705 799.73 531.778C799.123 532.625 799.03 533.625 799.45 534.778C801.95 541.725 804.337 548.605 806.61 555.418C806.652 555.542 806.731 555.652 806.835 555.732C806.939 555.812 807.064 555.86 807.195 555.87C807.326 555.879 807.457 555.85 807.572 555.786C807.687 555.721 807.78 555.625 807.84 555.508L813.45 544.468C813.637 544.101 813.557 543.801 813.21 543.568ZM764.01 533.588C759.45 541.708 757.69 552.038 756.13 561.128C755.26 566.218 761.9 575.688 765.06 579.758C765.54 580.378 765.86 580.305 766.02 579.538L771.47 553.368C771.654 552.488 771.623 551.575 771.38 550.708L766.66 533.898C766.584 533.624 766.427 533.379 766.211 533.194C765.995 533.009 765.728 532.893 765.445 532.86C765.161 532.827 764.874 532.878 764.618 533.008C764.363 533.137 764.151 533.339 764.01 533.588ZM619.96 572.348C639.63 592.268 651.35 548.658 654.01 537.118C654.03 537.031 654.03 536.991 654.01 536.998C653.923 537.025 653.837 537.055 653.75 537.088C653.677 537.115 653.623 537.165 653.59 537.238C648.05 551.188 633.45 572.178 615.93 557.388C615.61 557.115 615.453 557.188 615.46 557.608C615.58 563.938 615.95 568.288 619.96 572.348ZM792.1 559.398C795.93 561.538 800.96 564.058 804.35 559.788C804.597 559.475 804.653 559.128 804.52 558.748L797.96 539.768C797.932 539.691 797.881 539.625 797.813 539.578C797.745 539.532 797.665 539.509 797.583 539.511C797.501 539.513 797.422 539.541 797.357 539.591C797.292 539.64 797.244 539.709 797.22 539.788L791.73 558.488C791.678 558.658 791.687 558.84 791.754 559.006C791.822 559.171 791.944 559.31 792.1 559.398ZM771.67 540.016C771.657 539.977 771.637 539.941 771.61 539.91C771.584 539.88 771.551 539.854 771.515 539.836C771.479 539.818 771.439 539.807 771.398 539.804C771.358 539.801 771.317 539.806 771.278 539.819L771.051 539.894C771.012 539.907 770.976 539.927 770.945 539.954C770.914 539.98 770.889 540.013 770.871 540.049C770.853 540.085 770.842 540.125 770.839 540.166C770.836 540.206 770.841 540.247 770.854 540.286L772.75 546.02C772.763 546.059 772.783 546.095 772.81 546.125C772.836 546.156 772.869 546.182 772.905 546.2C772.941 546.218 772.981 546.229 773.022 546.232C773.062 546.235 773.103 546.23 773.142 546.217L773.37 546.142C773.408 546.129 773.444 546.109 773.475 546.082C773.506 546.055 773.531 546.023 773.549 545.987C773.567 545.95 773.578 545.911 773.581 545.87C773.584 545.83 773.579 545.789 773.567 545.75L771.67 540.016ZM787.16 563.858C782.62 559.705 778.88 554.928 775.94 549.528C775.908 549.467 775.859 549.417 775.8 549.381C775.741 549.346 775.674 549.327 775.605 549.327C775.536 549.327 775.469 549.346 775.41 549.381C775.351 549.417 775.302 549.467 775.27 549.528C774.583 550.855 774.397 552.101 774.71 553.268C777.037 561.815 779.183 570.385 781.15 578.978C781.166 579.06 781.209 579.133 781.272 579.187C781.335 579.241 781.414 579.273 781.498 579.278C781.581 579.282 781.665 579.259 781.736 579.212C781.807 579.165 781.861 579.097 781.89 579.018L787.21 564.098C787.225 564.055 787.228 564.01 787.219 563.968C787.21 563.925 787.19 563.887 787.16 563.858ZM621.23 593.988C623.07 599.658 629.69 609.068 636.41 602.248C640.61 597.988 643.49 589.878 645.16 584.218C647.98 574.598 650.323 564.861 652.19 555.008C652.197 554.995 652.203 554.981 652.21 554.968C652.257 554.875 652.203 554.805 652.05 554.758C651.95 554.725 651.887 554.758 651.86 554.858C648.95 564.538 638.45 594.208 622.81 582.408C622.07 581.848 620.57 580.385 618.31 578.018C617.977 577.671 617.847 577.735 617.92 578.208C618.967 585.148 620.07 590.408 621.23 593.988ZM768.72 583.228C770.85 584.708 773.85 586.818 776.37 586.138C778.96 585.428 779.46 583.198 778.86 580.698C777.113 573.405 775.313 566.171 773.46 558.998C773.459 558.953 773.439 558.91 773.407 558.879C773.374 558.848 773.33 558.832 773.285 558.833C773.24 558.834 773.197 558.853 773.166 558.886C773.135 558.919 773.119 558.963 773.12 559.008L768.3 582.168C768.259 582.367 768.277 582.574 768.352 582.762C768.426 582.951 768.554 583.113 768.72 583.228ZM748.6 610.258C749.38 611.988 752.44 614.168 753.98 614.408C754.545 614.491 755.122 614.386 755.621 614.11C756.12 613.833 756.513 613.4 756.74 612.878C760.293 604.678 762.803 596.145 764.27 587.278C764.295 587.143 764.29 587.005 764.255 586.872C764.221 586.739 764.157 586.615 764.07 586.508C760.203 581.761 757.223 576.501 755.13 570.728C755.1 570.647 755.045 570.579 754.972 570.533C754.899 570.488 754.814 570.467 754.728 570.475C754.643 570.483 754.562 570.519 754.499 570.578C754.436 570.636 754.394 570.713 754.38 570.798L748.46 609.248C748.407 609.601 748.453 609.938 748.6 610.258ZM632.67 636.238C643.03 634.088 648.29 589.548 649.71 580.148C649.717 580.095 649.747 579.998 649.8 579.858C649.86 579.691 649.833 579.548 649.72 579.428C649.52 579.208 649.39 579.241 649.33 579.528C647.24 589.278 643.93 600.708 637.69 608.658C633.4 614.138 629.18 612.368 624.76 608.458C624.28 608.031 624.117 608.131 624.27 608.758L630.79 635.058C630.89 635.46 631.142 635.807 631.492 636.027C631.843 636.247 632.265 636.323 632.67 636.238ZM630.52 642.878C630.12 641.931 629.7 640.638 629.26 638.998C625.84 626.065 623.63 617.421 622.63 613.068C622.628 613.063 622.625 613.059 622.621 613.056C622.617 613.052 622.613 613.05 622.608 613.049C622.603 613.048 622.598 613.048 622.593 613.05C622.588 613.051 622.584 613.054 622.58 613.058C622.473 613.165 622.37 613.271 622.27 613.378C622.183 613.465 622.15 613.571 622.17 613.698L631.88 672.178C631.92 672.42 632.038 672.642 632.216 672.812C632.395 672.982 632.624 673.089 632.87 673.118C633.683 673.211 634.213 672.771 634.46 671.798C640.3 648.398 645.223 624.771 649.23 600.918C649.283 600.598 649.177 600.528 648.91 600.708C648.51 600.981 648.257 601.488 648.15 602.228C647.1 609.608 642.12 644.878 631.29 643.478C631.122 643.453 630.962 643.385 630.827 643.28C630.693 643.174 630.587 643.036 630.52 642.878Z" fill="white"/>
</svg>
